#N canvas 22 51 922 653 12;
#X declare -lib Gem;
#X declare -lib zexy;
#X obj 14 17 declare -lib Gem;
#X obj 13 50 gemhead a;
#X obj 96 115 gemwin a;
#X msg 141 86 destroy;
#X msg 87 48 reset \, dimen 225 400 \, create \, 1 \, frame 60;
#X obj 535 12 vsl 20 128 0 127 0 0 empty empty empty 0 -9 0 12 #fcfcfc #000000 #000000 0 1;
#X obj 562 12 vsl 20 128 0 127 0 0 empty empty empty 0 -9 0 12 #fcfcfc #000000 #000000 0 1;
#X obj 589 12 vsl 20 128 0 127 0 0 empty empty empty 0 -9 0 12 #fcfcfc #000000 #000000 0 1;
#X obj 616 12 vsl 20 128 0 127 0 0 empty empty empty 0 -9 0 12 #fcfcfc #000000 #000000 0 1;
#X obj 17 99 gemlist;
#X obj 30 139 s headA;
#X obj 535 209 s k1a;
#X obj 581 211 s k2a;
#X obj 628 211 s k3a;
#X obj 674 213 s k4a;
#N canvas 0 28 450 300 knob_indicatorA 0;
#X obj 76 447 separator;
#X obj 72 392 gemlist;
#X obj 118 530 r k1a;
#X obj 113 555 / 127;
#X obj 71 261 r headA;
#X obj 197 445 separator;
#X obj 234 553 / 127;
#X obj 326 443 separator;
#X obj 363 551 / 127;
#X obj 447 441 separator;
#X obj 484 549 / 127;
#X obj 239 528 r k2a;
#X obj 368 526 r k3a;
#X obj 489 524 r k4a;
#X obj 35 485 translateXYZ 0 0.75 0;
#X obj 201 488 translateXYZ 0 0.25 0;
#X obj 362 490 translateXYZ 0 -0.25 0;
#X obj 529 488 translateXYZ 0 -0.75 0;
#X obj 71 286 separator;
#X obj 72 359 scale 0.25;
#X obj 373 611 * 4;
#X obj 490 606 * 4;
#X obj 241 599 * 4;
#X obj 121 608 * 4;
#X obj 190 650 rectangle 0 0.05;
#X obj 319 648 rectangle 0 0.05;
#X obj 440 646 rectangle 0 0.05;
#X obj 69 652 rectangle 0 0.05;
#X obj 72 328 translateXYZ -0.75 -1.5 0;
#X connect 0 0 14 0;
#X connect 1 0 0 0;
#X connect 1 0 5 0;
#X connect 1 0 7 0;
#X connect 1 0 9 0;
#X connect 2 0 3 0;
#X connect 3 0 23 0;
#X connect 4 0 18 0;
#X connect 5 0 15 0;
#X connect 6 0 22 0;
#X connect 7 0 16 0;
#X connect 8 0 20 0;
#X connect 9 0 17 0;
#X connect 10 0 21 0;
#X connect 11 0 6 0;
#X connect 12 0 8 0;
#X connect 13 0 10 0;
#X connect 14 0 27 0;
#X connect 15 0 24 0;
#X connect 16 0 25 0;
#X connect 17 0 26 0;
#X connect 18 0 28 0;
#X connect 19 0 1 0;
#X connect 20 0 25 1;
#X connect 21 0 26 1;
#X connect 22 0 24 1;
#X connect 23 0 27 1;
#X connect 28 0 19 0;
#X restore 15 177 pd knob_indicatorA;
#N canvas 0 0 749 723 knob_graphic 0;
#X obj 252 301 r k1a;
#X obj 252 327 / 127;
#X obj 254 393 * 320;
#X obj 251 553 cos;
#X obj 253 501 * 6.28319;
#X obj 255 474 / 360;
#X obj 290 552 sin;
#X obj 255 578 pack 0 0 0;
#X obj 254 527 t f f;
#X obj 255 420 + 20;
#X obj 255 447 - 90;
#X obj 162 598 curve 2 \; width 3;
#X obj 94 638 circle 0.1;
#X obj 154 563 separator;
#X obj 14 601 separator;
#X obj 90 595 separator;
#X obj 57 501 translateXYZ;
#X obj 49 400 gemlist;
#X obj 46 277 r headA;
#X msg 108 462 1;
#X obj 53 442 separator;
#X obj 564 337 / 127;
#X obj 561 561 cos;
#X obj 563 509 * 6.28319;
#X obj 565 482 / 360;
#X obj 600 560 sin;
#X obj 565 586 pack 0 0 0;
#X obj 564 535 t f f;
#X obj 565 428 + 20;
#X obj 565 455 - 90;
#X obj 472 606 curve 2 \; width 3;
#X obj 404 646 circle 0.1;
#X obj 475 571 separator;
#X obj 324 609 separator;
#X obj 400 603 separator;
#X obj 379 521 translateXYZ;
#X obj 363 450 separator;
#X msg 430 482 -1;
#X obj 564 311 r k2a;
#X obj 564 401 * 320;
#X obj 564 359 * -1;
#X obj 564 380 + 1;
#X obj 252 349 * -1;
#X obj 252 370 + 1;
#X obj 872 356 / 127;
#X obj 874 422 * 320;
#X obj 871 582 cos;
#X obj 873 530 * 6.28319;
#X obj 875 503 / 360;
#X obj 910 581 sin;
#X obj 875 607 pack 0 0 0;
#X obj 874 556 t f f;
#X obj 875 449 + 20;
#X obj 875 476 - 90;
#X obj 782 627 curve 2 \; width 3;
#X obj 714 667 circle 0.1;
#X obj 787 589 separator;
#X obj 634 630 separator;
#X obj 710 624 separator;
#X obj 689 542 translateXYZ;
#X obj 673 471 separator;
#X obj 1184 366 / 127;
#X obj 1181 590 cos;
#X obj 1183 538 * 6.28319;
#X obj 1185 511 / 360;
#X obj 1220 589 sin;
#X obj 1185 615 pack 0 0 0;
#X obj 1184 564 t f f;
#X obj 1185 457 + 20;
#X obj 1185 484 - 90;
#X obj 1092 635 curve 2 \; width 3;
#X obj 1024 675 circle 0.1;
#X obj 1099 603 separator;
#X obj 944 638 separator;
#X obj 1020 632 separator;
#X obj 999 550 translateXYZ;
#X obj 972 512 separator;
#X obj 1184 430 * 320;
#X obj 1184 388 * -1;
#X obj 1184 409 + 1;
#X obj 872 378 * -1;
#X obj 872 399 + 1;
#X obj 872 330 r k3a;
#X obj 1184 340 r k4a;
#X msg 740 503 1;
#X msg 1050 511 -1;
#X msg 465 484 0.5;
#X msg 775 505 -0.5;
#X msg 143 464 1.5;
#X msg 1085 513 -1.5;
#X obj 680 578 scale 0.75;
#X obj 999 578 scale 0.75;
#X obj 71 542 scale 0.75;
#X obj 373 553 scale 0.75;
#X obj 1006 394 translateXYZ;
#X obj 990 323 separator;
#X obj 1006 422 scale 0.75;
#X msg 1092 357 -2.5;
#X msg 1057 355 1;
#X obj 1092 322 loadbang;
#X obj 1104 452 circle 0.5;
#X obj 46 366 scale 0.25;
#X obj 44 307 separator;
#X obj 42 334 translateXYZ;
#X msg 170 305 2.75;
#X msg 129 298 1.25;
#X obj 323 644 circle 1 \; draw line \; width 2;
#X obj 13 636 circle 1 \; draw line \; width 2;
#X obj 633 665 circle 1 \; draw line \; width 2;
#X obj 943 673 circle 1 \; draw line \; width 2;
#X obj 145 241 loadbang;
#X obj 1007 449 circle 0.75 \; draw line \; width 2;
#X connect 0 0 1 0;
#X connect 1 0 42 0;
#X connect 2 0 9 0;
#X connect 3 0 7 0;
#X connect 4 0 8 0;
#X connect 5 0 4 0;
#X connect 6 0 7 1;
#X connect 7 0 11 2;
#X connect 8 0 3 0;
#X connect 8 1 6 0;
#X connect 9 0 10 0;
#X connect 10 0 5 0;
#X connect 13 0 11 0;
#X connect 14 0 107 0;
#X connect 15 0 12 0;
#X connect 16 0 92 0;
#X connect 17 0 20 0;
#X connect 17 0 36 0;
#X connect 17 0 60 0;
#X connect 17 0 76 0;
#X connect 17 0 95 0;
#X connect 18 0 102 0;
#X connect 19 0 16 1;
#X connect 20 0 16 0;
#X connect 21 0 40 0;
#X connect 22 0 26 0;
#X connect 23 0 27 0;
#X connect 24 0 23 0;
#X connect 25 0 26 1;
#X connect 26 0 30 2;
#X connect 27 0 22 0;
#X connect 27 1 25 0;
#X connect 28 0 29 0;
#X connect 29 0 24 0;
#X connect 32 0 30 0;
#X connect 33 0 106 0;
#X connect 34 0 31 0;
#X connect 35 0 93 0;
#X connect 36 0 35 0;
#X connect 37 0 35 1;
#X connect 38 0 21 0;
#X connect 39 0 28 0;
#X connect 40 0 41 0;
#X connect 41 0 39 0;
#X connect 42 0 43 0;
#X connect 43 0 2 0;
#X connect 44 0 80 0;
#X connect 45 0 52 0;
#X connect 46 0 50 0;
#X connect 47 0 51 0;
#X connect 48 0 47 0;
#X connect 49 0 50 1;
#X connect 50 0 54 2;
#X connect 51 0 46 0;
#X connect 51 1 49 0;
#X connect 52 0 53 0;
#X connect 53 0 48 0;
#X connect 56 0 54 0;
#X connect 57 0 108 0;
#X connect 58 0 55 0;
#X connect 59 0 90 0;
#X connect 60 0 59 0;
#X connect 61 0 78 0;
#X connect 62 0 66 0;
#X connect 63 0 67 0;
#X connect 64 0 63 0;
#X connect 65 0 66 1;
#X connect 66 0 70 2;
#X connect 67 0 62 0;
#X connect 67 1 65 0;
#X connect 68 0 69 0;
#X connect 69 0 64 0;
#X connect 72 0 70 0;
#X connect 73 0 109 0;
#X connect 74 0 71 0;
#X connect 75 0 91 0;
#X connect 76 0 75 0;
#X connect 77 0 68 0;
#X connect 78 0 79 0;
#X connect 79 0 77 0;
#X connect 80 0 81 0;
#X connect 81 0 45 0;
#X connect 82 0 44 0;
#X connect 83 0 61 0;
#X connect 84 0 59 1;
#X connect 85 0 75 1;
#X connect 86 0 35 2;
#X connect 87 0 59 2;
#X connect 88 0 16 2;
#X connect 89 0 75 2;
#X connect 90 0 57 0;
#X connect 90 0 58 0;
#X connect 90 0 56 0;
#X connect 91 0 73 0;
#X connect 91 0 74 0;
#X connect 91 0 72 0;
#X connect 92 0 14 0;
#X connect 92 0 15 0;
#X connect 92 0 13 0;
#X connect 93 0 33 0;
#X connect 93 0 34 0;
#X connect 93 0 32 0;
#X connect 94 0 96 0;
#X connect 95 0 94 0;
#X connect 96 0 100 0;
#X connect 96 0 111 0;
#X connect 97 0 94 2;
#X connect 98 0 94 1;
#X connect 99 0 98 0;
#X connect 99 0 97 0;
#X connect 99 0 89 0;
#X connect 99 0 88 0;
#X connect 99 0 19 0;
#X connect 99 0 86 0;
#X connect 99 0 37 0;
#X connect 99 0 87 0;
#X connect 99 0 84 0;
#X connect 99 0 85 0;
#X connect 101 0 17 0;
#X connect 102 0 103 0;
#X connect 103 0 101 0;
#X connect 104 0 103 2;
#X connect 105 0 103 1;
#X connect 110 0 105 0;
#X connect 110 0 104 0;
#X restore 16 203 pd knob_graphic;
#X obj 594 309 pack 0 0 0 0;
#X obj 643 265 t b f;
#X obj 587 262 t b f;
#X obj 537 260 t b f;
#X obj 570 333 list;
#X obj 724 18 bng 200 250 50 0 empty empty empty 0 -10 0 12 #fcfcfc #000000 #000000;
#X obj 132 17 declare -lib zexy;
#X obj 607 381 time, f 24;
#X obj 572 357 t l b;
#X obj 572 502 list append;
#X obj 605 410 pack 0 0 0;
#X listbox 571 552 46 0 0 0 - - - 0;
#X obj 571 526 list prepend kiosk1;
#X obj 733 240 r baseA;
#N canvas 0 28 450 300 ktbaseA 0;
#X obj 33 386 separator;
#X obj 36 476 rotateXYZ 90 0 0;
#X obj 47 571 cylinder \; draw line;
#X obj 34 327 gemlist;
#X obj 24 269 separator;
#X obj 95 355 accumrotate;
#X obj 113 300 bang;
#X msg 121 319 0.1;
#X msg 81 537 1;
#X obj 44 514 scaleXYZ 1 1 0.25;
#X obj 43 439 translateXYZ 0 -1 0;
#X obj 189 590 clip 4 16;
#X obj 197 483 / 127;
#X obj 195 511 * 12;
#X obj 191 539 + 4;
#X obj 278 545 int;
#X obj 191 564 change;
#X obj 265 584 s baseA;
#X obj 198 457 r k4a;
#X obj 48 212 r ktA;
#X connect 0 0 10 0;
#X connect 1 0 9 0;
#X connect 3 0 6 0;
#X connect 3 0 5 0;
#X connect 4 0 3 0;
#X connect 5 0 0 0;
#X connect 6 0 7 0;
#X connect 7 0 5 2;
#X connect 8 0 2 1;
#X connect 9 0 2 0;
#X connect 10 0 1 0;
#X connect 11 0 2 2;
#X connect 12 0 13 0;
#X connect 13 0 14 0;
#X connect 14 0 15 0;
#X connect 15 0 16 0;
#X connect 16 0 11 0;
#X connect 16 0 17 0;
#X connect 18 0 12 0;
#X connect 19 0 4 0;
#X restore 23 231 pd ktbaseA;
#X obj 206 253 r headA;
#X obj 204 390 s ktA;
#X obj 205 293 separator;
#X connect 1 0 9 0;
#X connect 3 0 2 0;
#X connect 4 0 2 0;
#X connect 5 0 11 0;
#X connect 5 0 17 0;
#X connect 6 0 12 0;
#X connect 6 0 20 0;
#X connect 7 0 13 0;
#X connect 7 0 19 0;
#X connect 8 0 14 0;
#X connect 9 0 10 0;
#X connect 17 0 21 1;
#X connect 18 0 17 0;
#X connect 18 1 17 3;
#X connect 19 0 17 0;
#X connect 19 1 17 2;
#X connect 20 0 17 0;
#X connect 20 1 17 1;
#X connect 21 0 25 0;
#X connect 22 0 21 0;
#X connect 24 0 27 0;
#X connect 24 1 27 1;
#X connect 24 2 27 2;
#X connect 25 0 26 0;
#X connect 25 1 24 0;
#X connect 26 0 29 0;
#X connect 27 0 26 1;
#X connect 29 0 28 0;
#X connect 30 0 18 0;
#X connect 32 0 34 0;
#X connect 34 0 33 0;
