#N canvas 751 0 613 723 12;
#X declare -lib Gem;
#X obj 1067 15 declare -lib Gem;
#X obj 1236 82 gemwin;
#X msg 1245 49 create \, 1;
#N canvas 0 0 749 723 layer 1;
#X obj 12 291 ctlin 1 1;
#X obj 48 322 / 127;
#X msg 300 528 0 0 0;
#X obj 102 423 pack 0 0 0;
#X obj 152 336 / 127;
#X obj 126 378 t b f;
#X obj 95 289 ctlin 2 1;
#X obj 279 625 curve 4;
#X obj 496 321 / 127;
#X obj 529 406 pack 0 0 0;
#X obj 579 319 / 127;
#X obj 553 361 t b f;
#X obj 479 238 ctlin 3 1;
#X obj 558 236 ctlin 4 1;
#X msg 356 530 0.5 1 0;
#X obj 308 479 rotateXYZ 0 180 0;
#X obj 284 435 separator;
#X obj 368 434 separator;
#X obj 297 408 gemlist;
#X obj 337 70 gemhead;
#X obj 327 317 rotateXYZ 0 0 180;
#X obj 68 377 - 0.5;
#X obj 472 407 - 0.5;
#X obj 51 347 * 2;
#X obj 508 360 * 2;
#X obj 331 266 separator;
#X obj 332 293 translateXYZ 0 2 0;
#X obj 336 210 gemrepeat 10;
#X obj 333 238 rotateXYZ 0 0 36;
#X obj 330 178 accumrotate;
#X obj 417 194 bang;
#X obj 320 379 scaleXYZ 0.65 1 1;
#X obj 334 145 rotateXYZ;
#X msg 415 108 -45;
#X obj 333 108 ortho 1;
#X msg 391 64 compat 0;
#X obj 517 541 loadbang;
#X obj 448 146 translateXYZ 0 -0.5 0;
#X msg 470 204 0.07;
#X msg 526 484 width 2;
#X connect 0 0 1 0;
#X connect 1 0 23 0;
#X connect 2 0 7 1;
#X connect 3 0 7 2;
#X connect 4 0 5 0;
#X connect 5 0 3 0;
#X connect 5 1 3 1;
#X connect 6 0 4 0;
#X connect 8 0 24 0;
#X connect 9 0 7 3;
#X connect 10 0 11 0;
#X connect 11 0 9 0;
#X connect 11 1 9 1;
#X connect 12 0 8 0;
#X connect 13 0 10 0;
#X connect 14 0 7 4;
#X connect 15 0 7 0;
#X connect 16 0 7 0;
#X connect 17 0 15 0;
#X connect 18 0 16 0;
#X connect 18 0 17 0;
#X connect 19 0 30 0;
#X connect 19 0 34 0;
#X connect 20 0 31 0;
#X connect 21 0 3 0;
#X connect 22 0 9 0;
#X connect 23 0 21 0;
#X connect 24 0 22 0;
#X connect 25 0 26 0;
#X connect 26 0 20 0;
#X connect 27 0 28 0;
#X connect 28 0 25 0;
#X connect 29 0 27 0;
#X connect 30 0 38 0;
#X connect 31 0 18 0;
#X connect 32 0 29 0;
#X connect 33 0 32 1;
#X connect 34 0 37 0;
#X connect 35 0 34 0;
#X connect 36 0 14 0;
#X connect 36 0 2 0;
#X connect 37 0 32 0;
#X connect 38 0 29 3;
#X connect 39 0 7 0;
#X restore 972 213 pd layer;
#X msg 1251 17 frame 60;
#X msg 1199 58;
#X connect 2 0 1 0;
#X connect 4 0 1 0;
